<?xml version="1.0" encoding="UTF-8" standalone="no"?>
<!DOCTYPE svg PUBLIC "-//W3C//DTD SVG 1.1//EN"
 "http://www.w3.org/Graphics/SVG/1.1/DTD/svg11.dtd">
<!-- Generated by graphviz version 15.1.0 (20260618.0150)
 -->
<!-- Title: SweepPipeline Pages: 1 -->
<svg width="1653pt" height="192pt"
 viewBox="0.00 0.00 1653.00 192.00" xmlns="http://www.w3.org/2000/svg" xmlns:xlink="http://www.w3.org/1999/xlink">
<g id="graph0" class="graph" transform="scale(1 1) rotate(0) translate(4 188)">
<title>SweepPipeline</title>
<polygon fill="#fbfaf8" stroke="none" points="-4,4 -4,-188 1648.9,-188 1648.9,4 -4,4"/>
<g id="clust1" class="cluster">
<title>cluster_perfinding</title>
<path fill="#fff7f0" stroke="#d97141" d="M615.9,-8C615.9,-8 1409.85,-8 1409.85,-8 1415.85,-8 1421.85,-14 1421.85,-20 1421.85,-20 1421.85,-164 1421.85,-164 1421.85,-170 1415.85,-176 1409.85,-176 1409.85,-176 615.9,-176 615.9,-176 609.9,-176 603.9,-170 603.9,-164 603.9,-164 603.9,-20 603.9,-20 603.9,-14 609.9,-8 615.9,-8"/>
<text xml:space="preserve" text-anchor="middle" x="676.78" y="-162.5" font-family="Inter" font-size="10.00"> &#160;per&#45;finding loop (repeats N×)</text>
</g>
<!-- Recon -->
<g id="node1" class="node">
<title>Recon</title>
<path fill="#e6f0e2" stroke="#3c8f5c" stroke-width="1.5" d="M131.55,-115.58C131.55,-115.58 12,-115.58 12,-115.58 6,-115.58 0,-109.58 0,-103.58 0,-103.58 0,-34.42 0,-34.42 0,-28.42 6,-22.42 12,-22.42 12,-22.42 131.55,-22.42 131.55,-22.42 137.55,-22.42 143.55,-28.42 143.55,-34.42 143.55,-34.42 143.55,-103.58 143.55,-103.58 143.55,-109.58 137.55,-115.58 131.55,-115.58"/>
<text xml:space="preserve" text-anchor="middle" x="71.78" y="-95.05" font-family="Inter" font-size="11.00">1 &#160;RECON</text>
<text xml:space="preserve" text-anchor="middle" x="71.78" y="-70.05" font-family="Inter" font-size="11.00">AST + taint</text>
<text xml:space="preserve" text-anchor="middle" x="71.78" y="-58.05" font-family="Inter" font-size="11.00">top of file scan</text>
<text xml:space="preserve" text-anchor="middle" x="71.78" y="-46.05" font-family="Inter" font-size="11.00">Warden README scan</text>
<text xml:space="preserve" text-anchor="middle" x="71.78" y="-34.05" font-family="Inter" font-size="11.00">LLM threat model</text>
</g>
<!-- Investigate -->
<g id="node2" class="node">
<title>Investigate</title>
<path fill="#e6f0e2" stroke="#3c8f5c" stroke-width="1.5" d="M313.35,-109.58C313.35,-109.58 200.55,-109.58 200.55,-109.58 194.55,-109.58 188.55,-103.58 188.55,-97.58 188.55,-97.58 188.55,-40.42 188.55,-40.42 188.55,-34.42 194.55,-28.42 200.55,-28.42 200.55,-28.42 313.35,-28.42 313.35,-28.42 319.35,-28.42 325.35,-34.42 325.35,-40.42 325.35,-40.42 325.35,-97.58 325.35,-97.58 325.35,-103.58 319.35,-109.58 313.35,-109.58"/>
<text xml:space="preserve" text-anchor="middle" x="256.95" y="-89.05" font-family="Inter" font-size="11.00">2 &#160;INVESTIGATE</text>
<text xml:space="preserve" text-anchor="middle" x="256.95" y="-64.05" font-family="Inter" font-size="11.00">fan&#45;out × K</text>
<text xml:space="preserve" text-anchor="middle" x="256.95" y="-52.05" font-family="Inter" font-size="11.00">LLM judgment per</text>
<text xml:space="preserve" text-anchor="middle" x="256.95" y="-40.05" font-family="Inter" font-size="11.00">data&#45;flow slice</text>
</g>
<!-- Recon&#45;&gt;Investigate -->
<g id="edge1" class="edge">
<title>Recon&#45;&gt;Investigate</title>
<path fill="none" stroke="#5a5750" stroke-width="1.2" d="M144.16,-69C144.16,-69 176.13,-69 176.13,-69"/>
<polygon fill="#5a5750" stroke="#5a5750" stroke-width="1.2" points="176.13,-72.5 186.13,-69 176.13,-65.5 176.13,-72.5"/>
</g>
<!-- Reduce -->
<g id="node3" class="node">
<title>Reduce</title>
<path fill="#e6f0e2" stroke="#3c8f5c" stroke-width="1.5" d="M500.4,-109.58C500.4,-109.58 382.35,-109.58 382.35,-109.58 376.35,-109.58 370.35,-103.58 370.35,-97.58 370.35,-97.58 370.35,-40.42 370.35,-40.42 370.35,-34.42 376.35,-28.42 382.35,-28.42 382.35,-28.42 500.4,-28.42 500.4,-28.42 506.4,-28.42 512.4,-34.42 512.4,-40.42 512.4,-40.42 512.4,-97.58 512.4,-97.58 512.4,-103.58 506.4,-109.58 500.4,-109.58"/>
<text xml:space="preserve" text-anchor="middle" x="441.38" y="-89.05" font-family="Inter" font-size="11.00">3 &#160;REDUCE + CHAIN</text>
<text xml:space="preserve" text-anchor="middle" x="441.38" y="-64.05" font-family="Inter" font-size="11.00">dedup by (file, fn, class)</text>
<text xml:space="preserve" text-anchor="middle" x="441.38" y="-52.05" font-family="Inter" font-size="11.00">Chainer composes</text>
<text xml:space="preserve" text-anchor="middle" x="441.38" y="-40.05" font-family="Inter" font-size="11.00">Exploit Paths</text>
</g>
<!-- Investigate&#45;&gt;Reduce -->
<g id="edge2" class="edge">
<title>Investigate&#45;&gt;Reduce</title>
<path fill="none" stroke="#5a5750" stroke-width="1.2" d="M325.89,-69C325.89,-69 357.94,-69 357.94,-69"/>
<polygon fill="#5a5750" stroke="#5a5750" stroke-width="1.2" points="357.94,-72.5 367.94,-69 357.94,-65.5 357.94,-72.5"/>
</g>
<!-- Reproduce -->
<g id="node4" class="node">
<title>Reproduce</title>
<path fill="#ffffff" stroke="#d97141" stroke-width="1.5" d="M742.7,-115.58C742.7,-115.58 629.9,-115.58 629.9,-115.58 623.9,-115.58 617.9,-109.58 617.9,-103.58 617.9,-103.58 617.9,-34.42 617.9,-34.42 617.9,-28.42 623.9,-22.42 629.9,-22.42 629.9,-22.42 742.7,-22.42 742.7,-22.42 748.7,-22.42 754.7,-28.42 754.7,-34.42 754.7,-34.42 754.7,-103.58 754.7,-103.58 754.7,-109.58 748.7,-115.58 742.7,-115.58"/>
<text xml:space="preserve" text-anchor="middle" x="686.3" y="-95.05" font-family="Inter" font-size="11.00">4a &#160;REPRODUCE</text>
<text xml:space="preserve" text-anchor="middle" x="686.3" y="-70.05" font-family="Inter" font-size="11.00">Modal sandbox</text>
<text xml:space="preserve" text-anchor="middle" x="686.3" y="-58.05" font-family="Inter" font-size="11.00">egress OFF</text>
<text xml:space="preserve" text-anchor="middle" x="686.3" y="-46.05" font-family="Inter" font-size="11.00">run real PoC</text>
<text xml:space="preserve" text-anchor="middle" x="686.3" y="-34.05" font-family="Inter" font-size="11.00">(SQL tautology, etc.)</text>
</g>
<!-- Reduce&#45;&gt;Reproduce -->
<g id="edge3" class="edge">
<title>Reduce&#45;&gt;Reproduce</title>
<path fill="none" stroke="#5a5750" stroke-width="1.2" d="M512.88,-69C512.88,-69 605.42,-69 605.42,-69"/>
<polygon fill="#5a5750" stroke="#5a5750" stroke-width="1.2" points="605.42,-72.5 615.42,-69 605.42,-65.5 605.42,-72.5"/>
<text xml:space="preserve" text-anchor="middle" x="565.15" y="-79.95" font-family="JetBrains Mono" font-size="9.00">each promoted</text>
<text xml:space="preserve" text-anchor="middle" x="565.15" y="-70.2" font-family="JetBrains Mono" font-size="9.00">candidate</text>
</g>
<!-- Remediate -->
<g id="node5" class="node">
<title>Remediate</title>
<path fill="#ffffff" stroke="#d97141" stroke-width="1.5" d="M929.75,-115.58C929.75,-115.58 811.7,-115.58 811.7,-115.58 805.7,-115.58 799.7,-109.58 799.7,-103.58 799.7,-103.58 799.7,-34.42 799.7,-34.42 799.7,-28.42 805.7,-22.42 811.7,-22.42 811.7,-22.42 929.75,-22.42 929.75,-22.42 935.75,-22.42 941.75,-28.42 941.75,-34.42 941.75,-34.42 941.75,-103.58 941.75,-103.58 941.75,-109.58 935.75,-115.58 929.75,-115.58"/>
<text xml:space="preserve" text-anchor="middle" x="870.73" y="-95.05" font-family="Inter" font-size="11.00">4b &#160;REMEDIATE</text>
<text xml:space="preserve" text-anchor="middle" x="870.73" y="-70.05" font-family="Inter" font-size="11.00">minimal patch</text>
<text xml:space="preserve" text-anchor="middle" x="870.73" y="-58.05" font-family="Inter" font-size="11.00">git branch (opt)</text>
<text xml:space="preserve" text-anchor="middle" x="870.73" y="-46.05" font-family="Inter" font-size="11.00">gh pr create (opt)</text>
<text xml:space="preserve" text-anchor="middle" x="870.73" y="-34.05" font-family="Inter" font-size="11.00">chain&#45;of&#45;custody signed</text>
</g>
<!-- Reproduce&#45;&gt;Remediate -->
<g id="edge4" class="edge">
<title>Reproduce&#45;&gt;Remediate</title>
<path fill="none" stroke="#5a5750" stroke-width="1.2" d="M755.24,-69C755.24,-69 787.29,-69 787.29,-69"/>
<polygon fill="#5a5750" stroke="#5a5750" stroke-width="1.2" points="787.29,-72.5 797.29,-69 787.29,-65.5 787.29,-72.5"/>
</g>
<!-- Verify -->
<g id="node6" class="node">
<title>Verify</title>
<path fill="#ffffff" stroke="#d97141" stroke-width="1.5" d="M1186.3,-115.58C1186.3,-115.58 1045,-115.58 1045,-115.58 1039,-115.58 1033,-109.58 1033,-103.58 1033,-103.58 1033,-34.42 1033,-34.42 1033,-28.42 1039,-22.42 1045,-22.42 1045,-22.42 1186.3,-22.42 1186.3,-22.42 1192.3,-22.42 1198.3,-28.42 1198.3,-34.42 1198.3,-34.42 1198.3,-103.58 1198.3,-103.58 1198.3,-109.58 1192.3,-115.58 1186.3,-115.58"/>
<text xml:space="preserve" text-anchor="middle" x="1115.65" y="-95.05" font-family="Inter" font-size="11.00">4c &#160;VERIFY</text>
<text xml:space="preserve" text-anchor="middle" x="1115.65" y="-70.05" font-family="Inter" font-size="11.00">different agent</text>
<text xml:space="preserve" text-anchor="middle" x="1115.65" y="-58.05" font-family="Inter" font-size="11.00">fresh context</text>
<text xml:space="preserve" text-anchor="middle" x="1115.65" y="-46.05" font-family="Inter" font-size="11.00">new sandbox</text>
<text xml:space="preserve" text-anchor="middle" x="1115.65" y="-34.05" font-family="Inter" font-size="11.00">re&#45;run PoC + backdoor scan</text>
</g>
<!-- Remediate&#45;&gt;Verify -->
<g id="edge5" class="edge">
<title>Remediate&#45;&gt;Verify</title>
<path fill="none" stroke="#5a5750" stroke-width="1.2" d="M942.23,-69C942.23,-69 1020.58,-69 1020.58,-69"/>
<polygon fill="#5a5750" stroke="#5a5750" stroke-width="1.2" points="1020.58,-72.5 1030.58,-69 1020.58,-65.5 1020.58,-72.5"/>
</g>
<!-- Consensus -->
<g id="node7" class="node">
<title>Consensus</title>
<path fill="#ffffff" stroke="#d97141" stroke-width="1.5" d="M1395.85,-109.58C1395.85,-109.58 1255.3,-109.58 1255.3,-109.58 1249.3,-109.58 1243.3,-103.58 1243.3,-97.58 1243.3,-97.58 1243.3,-40.42 1243.3,-40.42 1243.3,-34.42 1249.3,-28.42 1255.3,-28.42 1255.3,-28.42 1395.85,-28.42 1395.85,-28.42 1401.85,-28.42 1407.85,-34.42 1407.85,-40.42 1407.85,-40.42 1407.85,-97.58 1407.85,-97.58 1407.85,-103.58 1401.85,-109.58 1395.85,-109.58"/>
<text xml:space="preserve" text-anchor="middle" x="1325.58" y="-89.05" font-family="Inter" font-size="11.00">4d &#160;CONSENSUS</text>
<text xml:space="preserve" text-anchor="middle" x="1325.58" y="-64.05" font-family="Inter" font-size="11.00">independence check</text>
<text xml:space="preserve" text-anchor="middle" x="1325.58" y="-52.05" font-family="Inter" font-size="11.00">adjudicator on disagreement</text>
<text xml:space="preserve" text-anchor="middle" x="1325.58" y="-40.05" font-family="Inter" font-size="11.00">assign tier + confidence</text>
</g>
<!-- Verify&#45;&gt;Consensus -->
<g id="edge6" class="edge">
<title>Verify&#45;&gt;Consensus</title>
<path fill="none" stroke="#5a5750" stroke-width="1.2" d="M1198.92,-69C1198.92,-69 1230.93,-69 1230.93,-69"/>
<polygon fill="#5a5750" stroke="#5a5750" stroke-width="1.2" points="1230.93,-72.5 1240.93,-69 1230.93,-65.5 1230.93,-72.5"/>
</g>
<!-- Consensus&#45;&gt;Reproduce -->
<g id="edge7" class="edge">
<title>Consensus&#45;&gt;Reproduce</title>
<path fill="none" stroke="#8a8578" stroke-width="1.2" stroke-dasharray="5,2" d="M1325.9,-110.27C1325.9,-122.92 1325.9,-133.58 1325.9,-133.58 1325.9,-133.58 685.9,-133.58 685.9,-133.58 685.9,-133.58 685.9,-128.09 685.9,-128.09"/>
<polygon fill="#8a8578" stroke="#8a8578" stroke-width="1.2" points="689.4,-128.09 685.9,-118.09 682.4,-128.09 689.4,-128.09"/>
<text xml:space="preserve" text-anchor="middle" x="987.38" y="-117.2" font-family="JetBrains Mono" font-size="9.00">next finding</text>
</g>
<!-- Attest -->
<g id="node8" class="node">
<title>Attest</title>
<path fill="#3c8f5c" stroke="#1a1a17" stroke-width="2" d="M1632.9,-109.58C1632.9,-109.58 1508.1,-109.58 1508.1,-109.58 1502.1,-109.58 1496.1,-103.58 1496.1,-97.58 1496.1,-97.58 1496.1,-40.42 1496.1,-40.42 1496.1,-34.42 1502.1,-28.42 1508.1,-28.42 1508.1,-28.42 1632.9,-28.42 1632.9,-28.42 1638.9,-28.42 1644.9,-34.42 1644.9,-40.42 1644.9,-40.42 1644.9,-97.58 1644.9,-97.58 1644.9,-103.58 1638.9,-109.58 1632.9,-109.58"/>
<text xml:space="preserve" text-anchor="middle" x="1570.5" y="-89.05" font-family="Inter" font-size="11.00" fill="#ffffff">5 &#160;ATTEST</text>
<text xml:space="preserve" text-anchor="middle" x="1570.5" y="-64.05" font-family="Inter" font-size="11.00" fill="#ffffff">Reporter assembles</text>
<text xml:space="preserve" text-anchor="middle" x="1570.5" y="-52.05" font-family="Inter" font-size="11.00" fill="#ffffff">JSON · Markdown · PDF</text>
<text xml:space="preserve" text-anchor="middle" x="1570.5" y="-40.05" font-family="Inter" font-size="11.00" fill="#ffffff">Attestation persisted</text>
</g>
<!-- Consensus&#45;&gt;Attest -->
<g id="edge8" class="edge">
<title>Consensus&#45;&gt;Attest</title>
<path fill="none" stroke="#5a5750" stroke-width="1.2" d="M1408.5,-69C1408.5,-69 1483.67,-69 1483.67,-69"/>
<polygon fill="#5a5750" stroke="#5a5750" stroke-width="1.2" points="1483.67,-72.5 1493.67,-69 1483.67,-65.5 1483.67,-72.5"/>
<text xml:space="preserve" text-anchor="middle" x="1451.98" y="-70.2" font-family="JetBrains Mono" font-size="9.00">last finding</text>
</g>
</g>
</svg>
